# xmcd
#
# Track frame offsets:
#	150
#	27880
#	39370
#	53230
#	65265
#	83200
#	101740
#	114010
#	126135
#	137900
#	164177
#	190937
#	206887
#	220062
#	232865
#	244967
#
# Disc length: 3557 seconds
#
# Revision: 1
# Processed by: cddbd v1.5.2PL0 Copyright (c) Steve Scherf et al.
# Submitted via: audiograbber 1.83.01
#
DISCID=e20de310
DTITLE=Various Artist - Experience - The Jazz And Blues Collection - CD2-4
DYEAR=2005
DGENRE=Jazz Blues
TTITLE0=B.B. King - Payin The Cost To Be The Boss
TTITLE1=Muddy Waters - Goin' Home
TTITLE2=Howlin' Wolf - Highway 49
TTITLE3=John Lee hooker - Crawling King Snake
TTITLE4=Big Joe Turner - Roll' Em Pete
TTITLE5=Memphis Slim - Gamblers Blues
TTITLE6=Elmore James - Mean Mistreatin' Mama
TTITLE7=Jimmy Reed - My Baby Is So Sweet
TTITLE8=Lightnin' Hopkins - Lonesome Dog Blues
TTITLE9=B.B. King - Guess Who
TTITLE10=Otis Rush - It's Hard For Me To Believe
TTITLE11=Little Walter - Walter's Blues
TTITLE12=Bukka White - Parchman Farm
TTITLE13=Muddy Waters - Fourty Days And Fourty Nights
TTITLE14=John Lee Hooker - I'm In The Mood
TTITLE15=B.B. King - The Trill Is Gone
EXTD=
EXTT0=
EXTT1=
EXTT2=
EXTT3=
EXTT4=
EXTT5=
EXTT6=
EXTT7=
EXTT8=
EXTT9=
EXTT10=
EXTT11=
EXTT12=
EXTT13=
EXTT14=
EXTT15=
PLAYORDER=
